<?xml version="1.0" standalone="no"?>
<!DOCTYPE svg PUBLIC "-//W3C//DTD SVG 20010904//EN"
 "http://www.w3.org/TR/2001/REC-SVG-20010904/DTD/svg10.dtd">
<svg version="1.0" xmlns="http://www.w3.org/2000/svg"
 width="1000.000000pt" height="1000.000000pt" viewBox="0 0 1000.000000 1000.000000"
 preserveAspectRatio="xMidYMid meet">
<metadata>
Created by potrace 1.14, written by Peter Selinger 2001-2017
</metadata>
<g transform="translate(0.000000,1000.000000) scale(0.100000,-0.100000)"
fill="#000000" stroke="none">
<path d="M4635 9993 c-27 -2 -113 -10 -190 -18 -1929 -210 -3575 -1538 -4190
-3380 -112 -335 -185 -661 -231 -1035 -22 -180 -30 -732 -15 -940 89 -1191
605 -2314 1451 -3160 603 -603 1359 -1047 2170 -1275 266 -75 516 -124 820
-162 118 -15 220 -18 550 -18 432 0 518 6 837 60 1363 231 2562 1008 3330
2160 478 717 758 1532 824 2396 16 211 7 757 -16 939 -77 627 -242 1180 -510
1705 -485 952 -1248 1715 -2200 2200 -572 292 -1223 474 -1869 525 -117 9
-638 11 -761 3z"/>
</g>
</svg>
