<?xml version="1.0" standalone="no"?>
<!DOCTYPE svg PUBLIC "-//W3C//DTD SVG 20010904//EN"
 "http://www.w3.org/TR/2001/REC-SVG-20010904/DTD/svg10.dtd">
<svg version="1.0" xmlns="http://www.w3.org/2000/svg"
 width="1499.000000pt" height="1499.000000pt" viewBox="0 0 1499.000000 1499.000000"
 preserveAspectRatio="xMidYMid meet">
<metadata>
Created by potrace 1.14, written by Peter Selinger 2001-2017
</metadata>
<g transform="translate(0.000000,1499.000000) scale(0.100000,-0.100000)"
fill="#000000" stroke="none">
<path d="M7014 14976 c-123 -41 -145 -69 -442 -566 -146 -245 -304 -510 -352
-590 -48 -80 -187 -314 -310 -520 -122 -206 -233 -391 -245 -410 -12 -19 -34
-54 -48 -77 -15 -24 -27 -45 -27 -48 0 -3 -12 -24 -27 -48 -15 -23 -33 -51
-39 -62 -13 -23 -261 -440 -444 -745 -67 -113 -130 -218 -140 -235 -9 -16 -71
-120 -137 -230 -66 -110 -247 -414 -402 -675 -156 -261 -291 -486 -301 -500
-9 -14 -28 -45 -41 -69 -13 -24 -28 -51 -34 -60 -5 -9 -90 -151 -188 -316 -99
-165 -187 -312 -198 -327 -10 -15 -19 -30 -19 -33 0 -3 -31 -56 -68 -117 -54
-89 -233 -388 -371 -620 -9 -14 -36 -59 -60 -100 -357 -592 -597 -1003 -612
-1043 -25 -69 -21 -193 8 -257 16 -35 353 -520 406 -583 4 -5 93 -129 197
-275 104 -146 193 -269 197 -275 11 -14 155 -214 173 -241 18 -27 381 -534
393 -549 9 -12 175 -243 197 -275 31 -45 154 -215 160 -220 3 -3 10 -13 15
-22 6 -10 117 -167 248 -350 131 -183 245 -342 253 -353 7 -11 36 -51 64 -88
27 -37 50 -72 50 -77 0 -4 4 -10 8 -12 4 -1 100 -131 212 -288 209 -292 246
-337 302 -366 113 -59 235 -62 343 -9 92 45 115 74 316 393 35 56 80 127 99
157 61 97 513 804 567 889 29 44 58 91 65 103 14 25 445 703 543 853 34 52
110 173 171 267 60 95 145 230 190 300 44 71 222 349 394 618 172 270 318 499
324 510 6 11 27 45 47 75 20 30 62 96 93 145 32 50 90 141 129 202 40 62 92
145 117 184 25 39 72 114 105 165 33 51 84 132 114 179 64 100 113 148 188
182 142 65 335 19 427 -102 25 -33 100 -176 156 -300 13 -28 56 -120 97 -205
42 -85 97 -200 123 -255 26 -55 69 -145 95 -200 188 -395 185 -387 189 -462 6
-102 -19 -159 -162 -384 -90 -142 -177 -276 -237 -371 -27 -42 -71 -110 -96
-150 -512 -806 -635 -999 -654 -1028 -35 -52 -223 -347 -264 -413 -20 -32 -47
-75 -61 -97 -14 -21 -50 -78 -80 -127 -89 -143 -158 -198 -281 -224 -106 -23
-249 20 -321 97 -102 108 -253 146 -393 99 -98 -34 -168 -97 -214 -195 l-26
-55 -3 -1945 c-2 -1769 -1 -1949 14 -1995 32 -101 95 -171 194 -219 59 -28 74
-31 160 -31 83 0 102 3 151 27 83 41 128 94 240 282 56 94 185 311 287 481
102 171 192 322 201 337 9 15 65 109 126 210 60 101 115 192 121 203 6 11 66
112 134 225 68 113 128 214 134 225 15 27 173 291 201 335 12 19 128 213 257
430 129 217 389 654 578 970 189 316 379 636 423 710 44 74 89 151 102 170 37
59 58 94 69 115 12 21 161 272 381 640 73 121 239 400 370 620 130 220 245
411 254 425 25 39 40 64 48 80 4 8 45 78 91 155 47 77 92 154 102 170 9 17 85
144 169 283 83 139 159 270 167 290 10 21 18 73 20 122 3 70 -1 94 -19 140
-18 44 -133 220 -180 275 -4 6 -61 84 -125 175 -296 415 -417 584 -527 735
-62 86 -853 1190 -915 1279 -25 35 -82 115 -127 177 -45 63 -87 121 -93 129
-13 19 -285 398 -304 425 -26 35 -270 376 -300 419 -113 161 -228 314 -250
333 -39 34 -117 70 -172 80 -163 30 -311 -44 -399 -199 -5 -10 -41 -66 -79
-125 -108 -168 -135 -209 -436 -683 -155 -245 -322 -506 -370 -580 -47 -74
-115 -180 -149 -235 -55 -88 -199 -315 -264 -415 -38 -59 -800 -1256 -827
-1299 -14 -22 -45 -72 -70 -111 -25 -39 -52 -82 -60 -95 -65 -104 -228 -358
-251 -392 -16 -23 -29 -44 -29 -47 0 -4 -15 -28 -33 -54 -18 -26 -64 -96 -102
-157 -38 -60 -88 -139 -111 -175 -23 -36 -90 -141 -149 -235 -251 -394 -259
-405 -363 -453 -101 -46 -239 -36 -334 24 -91 57 -117 101 -313 519 -18 39
-63 133 -100 210 -37 77 -84 176 -105 220 -21 44 -74 155 -118 247 -102 210
-115 247 -114 328 0 90 23 143 137 322 54 84 117 182 140 218 23 36 88 138
146 228 57 89 109 170 114 180 6 10 33 54 61 98 28 43 100 156 160 249 59 94
131 206 159 250 29 44 96 150 150 235 87 138 126 199 240 378 17 26 93 145
169 265 76 121 156 236 178 257 143 137 358 129 518 -19 101 -94 202 -123 338
-97 132 25 254 152 277 287 4 23 7 900 7 1949 1 2102 5 1962 -61 2060 -43 65
-134 130 -202 146 -55 13 -176 13 -215 0z"/>
</g>
</svg>
